<mxfile host="app.diagrams.net" modified="2023-02-21T15:55:21.226Z" agent="5.0 (Windows NT 10.0; Win64; x64) AppleWebKit/537.36 (KHTML, like Gecko) Chrome/109.0.0.0 Safari/537.36" etag="JRfZUOY1wJJk-4NjVb4x" version="20.8.20" type="github">
  <diagram name="Page-1" id="c9db0220-8083-56f3-ca83-edcdcd058819">
    <mxGraphModel dx="1615" dy="845" grid="1" gridSize="10" guides="1" tooltips="1" connect="1" arrows="1" fold="1" page="1" pageScale="1.5" pageWidth="826" pageHeight="1169" background="none" math="0" shadow="0">
      <root>
        <mxCell id="0" style=";html=1;" />
        <mxCell id="1" style=";html=1;" parent="0" />
        <mxCell id="hO_4is10aLIbuFJHIatz-2" value="&lt;span style=&quot;font-size: 19px;&quot;&gt;Search or paste URL&lt;/span&gt;" style="rounded=0;whiteSpace=wrap;html=1;align=left;" vertex="1" parent="1">
          <mxGeometry x="40" y="50" width="220" height="60" as="geometry" />
        </mxCell>
        <mxCell id="hO_4is10aLIbuFJHIatz-3" value="" style="rounded=0;whiteSpace=wrap;html=1;align=left;" vertex="1" parent="1">
          <mxGeometry x="290" y="50" width="630" height="60" as="geometry" />
        </mxCell>
        <mxCell id="hO_4is10aLIbuFJHIatz-4" value="" style="rounded=0;whiteSpace=wrap;html=1;" vertex="1" parent="1">
          <mxGeometry x="940" y="50" width="260" height="60" as="geometry" />
        </mxCell>
        <mxCell id="hO_4is10aLIbuFJHIatz-5" value="" style="html=1;verticalLabelPosition=bottom;align=center;labelBackgroundColor=#ffffff;verticalAlign=top;strokeWidth=2;strokeColor=#0080F0;shadow=0;dashed=0;shape=mxgraph.ios7.icons.looking_glass;fontSize=19;" vertex="1" parent="1">
          <mxGeometry x="230" y="65" width="30" height="30" as="geometry" />
        </mxCell>
        <mxCell id="hO_4is10aLIbuFJHIatz-6" value="&lt;font style=&quot;font-size: 23px;&quot;&gt;Home&lt;/font&gt;" style="text;html=1;strokeColor=none;fillColor=none;align=center;verticalAlign=middle;whiteSpace=wrap;rounded=0;fontSize=21;" vertex="1" parent="1">
          <mxGeometry x="350" y="55" width="100" height="50" as="geometry" />
        </mxCell>
        <mxCell id="hO_4is10aLIbuFJHIatz-7" value="" style="shape=image;html=1;verticalAlign=top;verticalLabelPosition=bottom;labelBackgroundColor=#ffffff;imageAspect=0;aspect=fixed;image=https://cdn1.iconfinder.com/data/icons/sea-24/32/Artboard_26sea-128.png;fontSize=23;" vertex="1" parent="1">
          <mxGeometry x="310" y="55" width="48" height="48" as="geometry" />
        </mxCell>
        <mxCell id="hO_4is10aLIbuFJHIatz-8" value="" style="shape=image;html=1;verticalAlign=top;verticalLabelPosition=bottom;labelBackgroundColor=#ffffff;imageAspect=0;aspect=fixed;image=https://cdn1.iconfinder.com/data/icons/sea-24/32/Artboard_10sea-128.png;fontSize=23;" vertex="1" parent="1">
          <mxGeometry x="960" y="56" width="48" height="48" as="geometry" />
        </mxCell>
        <mxCell id="hO_4is10aLIbuFJHIatz-9" value="TXIPIRONES" style="text;html=1;strokeColor=none;fillColor=none;align=center;verticalAlign=middle;whiteSpace=wrap;rounded=0;fontSize=23;" vertex="1" parent="1">
          <mxGeometry x="1060" y="65" width="60" height="30" as="geometry" />
        </mxCell>
        <mxCell id="hO_4is10aLIbuFJHIatz-10" value="" style="rounded=0;whiteSpace=wrap;html=1;fontFamily=Helvetica;fontSize=23;" vertex="1" parent="1">
          <mxGeometry x="940" y="140" width="260" height="460" as="geometry" />
        </mxCell>
        <mxCell id="hO_4is10aLIbuFJHIatz-11" value="Home" style="text;html=1;strokeColor=none;fillColor=none;align=center;verticalAlign=middle;whiteSpace=wrap;rounded=0;fontSize=23;fontFamily=Helvetica;" vertex="1" parent="1">
          <mxGeometry x="1013" y="169" width="60" height="31" as="geometry" />
        </mxCell>
        <mxCell id="hO_4is10aLIbuFJHIatz-12" value="" style="shape=image;html=1;verticalAlign=top;verticalLabelPosition=bottom;labelBackgroundColor=#ffffff;imageAspect=0;aspect=fixed;image=https://cdn1.iconfinder.com/data/icons/sea-24/32/Artboard_26sea-128.png;fontSize=23;" vertex="1" parent="1">
          <mxGeometry x="950.25" y="160.5" width="48" height="48" as="geometry" />
        </mxCell>
        <mxCell id="hO_4is10aLIbuFJHIatz-13" value="Notifications" style="text;html=1;strokeColor=none;fillColor=none;align=center;verticalAlign=middle;whiteSpace=wrap;rounded=0;fontSize=23;fontFamily=Helvetica;" vertex="1" parent="1">
          <mxGeometry x="1050" y="240" width="60" height="30" as="geometry" />
        </mxCell>
        <mxCell id="hO_4is10aLIbuFJHIatz-15" value="" style="shape=image;html=1;verticalAlign=top;verticalLabelPosition=bottom;labelBackgroundColor=#ffffff;imageAspect=0;aspect=fixed;image=https://cdn4.iconfinder.com/data/icons/ionicons/512/icon-ios7-bell-128.png;fontFamily=Helvetica;fontSize=23;" vertex="1" parent="1">
          <mxGeometry x="944.25" y="220" width="60" height="60" as="geometry" />
        </mxCell>
        <mxCell id="hO_4is10aLIbuFJHIatz-16" value="Direct&amp;nbsp; messages" style="text;html=1;strokeColor=none;fillColor=none;align=center;verticalAlign=middle;whiteSpace=wrap;rounded=0;fontSize=23;fontFamily=Helvetica;" vertex="1" parent="1">
          <mxGeometry x="1008" y="310" width="190" height="30" as="geometry" />
        </mxCell>
        <mxCell id="hO_4is10aLIbuFJHIatz-17" value="" style="shape=image;html=1;verticalAlign=top;verticalLabelPosition=bottom;labelBackgroundColor=#ffffff;imageAspect=0;aspect=fixed;image=https://cdn4.iconfinder.com/data/icons/ionicons/512/icon-at-128.png;fontFamily=Helvetica;fontSize=23;" vertex="1" parent="1">
          <mxGeometry x="948" y="296.5" width="57" height="57" as="geometry" />
        </mxCell>
        <mxCell id="hO_4is10aLIbuFJHIatz-18" value="Bookmarks" style="text;html=1;strokeColor=none;fillColor=none;align=center;verticalAlign=middle;whiteSpace=wrap;rounded=0;fontSize=23;fontFamily=Helvetica;" vertex="1" parent="1">
          <mxGeometry x="1040" y="390" width="60" height="30" as="geometry" />
        </mxCell>
        <mxCell id="hO_4is10aLIbuFJHIatz-19" value="Favorites" style="text;html=1;strokeColor=none;fillColor=none;align=center;verticalAlign=middle;whiteSpace=wrap;rounded=0;fontSize=23;fontFamily=Helvetica;" vertex="1" parent="1">
          <mxGeometry x="1040" y="460" width="60" height="30" as="geometry" />
        </mxCell>
        <mxCell id="hO_4is10aLIbuFJHIatz-20" value="" style="sketch=0;pointerEvents=1;shadow=0;dashed=0;html=1;strokeColor=none;labelPosition=center;verticalLabelPosition=bottom;verticalAlign=top;align=center;fillColor=#505050;shape=mxgraph.mscae.intune.update;fontFamily=Helvetica;fontSize=23;" vertex="1" parent="1">
          <mxGeometry x="860" y="56" width="50" height="44" as="geometry" />
        </mxCell>
        <mxCell id="hO_4is10aLIbuFJHIatz-21" value="" style="verticalLabelPosition=bottom;verticalAlign=top;html=1;shape=mxgraph.basic.star;fontFamily=Helvetica;fontSize=23;" vertex="1" parent="1">
          <mxGeometry x="948" y="447.5" width="65" height="55" as="geometry" />
        </mxCell>
        <mxCell id="hO_4is10aLIbuFJHIatz-22" value="" style="shape=image;html=1;verticalAlign=top;verticalLabelPosition=bottom;labelBackgroundColor=#ffffff;imageAspect=0;aspect=fixed;image=https://cdn1.iconfinder.com/data/icons/material-core/18/bookmark-outline-128.png;fontFamily=Helvetica;fontSize=23;" vertex="1" parent="1">
          <mxGeometry x="955.5" y="378.75" width="52.5" height="52.5" as="geometry" />
        </mxCell>
        <mxCell id="hO_4is10aLIbuFJHIatz-23" value="Explore" style="text;html=1;strokeColor=none;fillColor=none;align=center;verticalAlign=middle;whiteSpace=wrap;rounded=0;fontSize=23;fontFamily=Helvetica;" vertex="1" parent="1">
          <mxGeometry x="1040" y="540" width="60" height="30" as="geometry" />
        </mxCell>
        <mxCell id="hO_4is10aLIbuFJHIatz-25" value="" style="shape=image;html=1;verticalAlign=top;verticalLabelPosition=bottom;labelBackgroundColor=#ffffff;imageAspect=0;aspect=fixed;image=https://cdn0.iconfinder.com/data/icons/heroicons-ui/24/icon-hashtag-128.png;fontFamily=Helvetica;fontSize=23;" vertex="1" parent="1">
          <mxGeometry x="948" y="515" width="80" height="80" as="geometry" />
        </mxCell>
        <mxCell id="hO_4is10aLIbuFJHIatz-26" value="" style="rounded=0;whiteSpace=wrap;html=1;fontFamily=Helvetica;fontSize=23;" vertex="1" parent="1">
          <mxGeometry x="940" y="600" width="260" height="60" as="geometry" />
        </mxCell>
        <mxCell id="hO_4is10aLIbuFJHIatz-27" value="Settings" style="text;html=1;strokeColor=none;fillColor=none;align=center;verticalAlign=middle;whiteSpace=wrap;rounded=0;fontSize=23;fontFamily=Helvetica;" vertex="1" parent="1">
          <mxGeometry x="1028" y="615" width="60" height="30" as="geometry" />
        </mxCell>
        <mxCell id="hO_4is10aLIbuFJHIatz-28" value="" style="sketch=0;outlineConnect=0;fontColor=#232F3E;gradientColor=none;fillColor=#232F3D;strokeColor=none;dashed=0;verticalLabelPosition=bottom;verticalAlign=top;align=center;html=1;fontSize=12;fontStyle=0;aspect=fixed;pointerEvents=1;shape=mxgraph.aws4.gear;fontFamily=Helvetica;" vertex="1" parent="1">
          <mxGeometry x="957" y="606" width="48" height="48" as="geometry" />
        </mxCell>
        <mxCell id="hO_4is10aLIbuFJHIatz-29" value="" style="rounded=0;whiteSpace=wrap;html=1;fontFamily=Helvetica;fontSize=23;" vertex="1" parent="1">
          <mxGeometry x="940" y="660" width="260" height="340" as="geometry" />
        </mxCell>
        <mxCell id="hO_4is10aLIbuFJHIatz-30" value="Trending now" style="text;html=1;strokeColor=none;fillColor=none;align=center;verticalAlign=middle;whiteSpace=wrap;rounded=0;fontSize=23;fontFamily=Helvetica;" vertex="1" parent="1">
          <mxGeometry x="960" y="680" width="190" height="30" as="geometry" />
        </mxCell>
        <mxCell id="hO_4is10aLIbuFJHIatz-32" value="" style="shape=link;html=1;rounded=0;fontFamily=Helvetica;fontSize=23;" edge="1" parent="1">
          <mxGeometry width="100" relative="1" as="geometry">
            <mxPoint x="1000" y="720" as="sourcePoint" />
            <mxPoint x="1100" y="720" as="targetPoint" />
          </mxGeometry>
        </mxCell>
        <mxCell id="hO_4is10aLIbuFJHIatz-34" value="The hashtag&#39;s trending HERE&amp;nbsp;" style="rounded=1;whiteSpace=wrap;html=1;fontFamily=Helvetica;fontSize=23;fillColor=#d5e8d4;strokeColor=#82b366;" vertex="1" parent="1">
          <mxGeometry x="960" y="730" width="210" height="210" as="geometry" />
        </mxCell>
        <mxCell id="hO_4is10aLIbuFJHIatz-36" value="" style="rounded=0;whiteSpace=wrap;html=1;fontFamily=Helvetica;fontSize=23;" vertex="1" parent="1">
          <mxGeometry x="290" y="140" width="630" height="860" as="geometry" />
        </mxCell>
        <mxCell id="hO_4is10aLIbuFJHIatz-38" value="" style="shape=image;html=1;verticalAlign=top;verticalLabelPosition=bottom;labelBackgroundColor=#ffffff;imageAspect=0;aspect=fixed;image=https://cdn1.iconfinder.com/data/icons/ui-essential-17/32/UI_Essential_Outline_1_essential-app-ui-avatar-profile-user-account-128.png;fontFamily=Helvetica;fontSize=23;" vertex="1" parent="1">
          <mxGeometry x="310" y="160.5" width="78" height="78" as="geometry" />
        </mxCell>
        <mxCell id="hO_4is10aLIbuFJHIatz-39" value="" style="shape=image;html=1;verticalAlign=top;verticalLabelPosition=bottom;labelBackgroundColor=#ffffff;imageAspect=0;aspect=fixed;image=https://cdn1.iconfinder.com/data/icons/ui-essential-17/32/UI_Essential_Outline_1_essential-app-ui-avatar-profile-user-account-128.png;fontFamily=Helvetica;fontSize=23;" vertex="1" parent="1">
          <mxGeometry x="305" y="447.5" width="83" height="83" as="geometry" />
        </mxCell>
        <mxCell id="hO_4is10aLIbuFJHIatz-40" value="" style="line;strokeWidth=2;html=1;fontFamily=Helvetica;fontSize=23;" vertex="1" parent="1">
          <mxGeometry x="315" y="431.25" width="580" height="10" as="geometry" />
        </mxCell>
        <mxCell id="hO_4is10aLIbuFJHIatz-41" value="Text, emojis, URL .." style="rounded=1;whiteSpace=wrap;html=1;fontFamily=Helvetica;fontSize=23;fillColor=#dae8fc;strokeColor=#6c8ebf;" vertex="1" parent="1">
          <mxGeometry x="320" y="250" width="560" height="160" as="geometry" />
        </mxCell>
        <mxCell id="hO_4is10aLIbuFJHIatz-42" value="" style="rounded=1;whiteSpace=wrap;html=1;fontFamily=Helvetica;fontSize=23;" vertex="1" parent="1">
          <mxGeometry x="550" y="560" width="120" height="60" as="geometry" />
        </mxCell>
      </root>
    </mxGraphModel>
  </diagram>
</mxfile>
